<?xml version="1.0" encoding="UTF-8"?>
<svg id="Layer_1" data-name="Layer 1" xmlns="http://www.w3.org/2000/svg" viewBox="0 0 216.84 36.47">
  <defs>
    <style>
      .cls-1 {
        fill: #5c5c5c;
      }

      .cls-2 {
        fill: #03789c;
      }
    </style>
  </defs>
  <g>
    <path class="cls-1" d="m55.48,28.23v2.37h2.4v.53h-2.4v2.4h2.67v.53h-3.31v-6.35h3.31v.53h-2.67Z"/>
    <path class="cls-1" d="m60.04,27.34v6.71h-.63v-6.71h.63Z"/>
    <path class="cls-1" d="m65.94,31.82h-4.11c.02.38.11.7.27.96.16.27.38.47.64.6.27.14.56.2.87.2.41,0,.76-.1,1.04-.3.28-.2.47-.47.56-.81h.67c-.12.48-.38.88-.78,1.18s-.89.46-1.49.46c-.46,0-.88-.1-1.25-.31-.37-.21-.66-.5-.87-.89-.21-.38-.31-.83-.31-1.35s.1-.96.31-1.35.49-.68.86-.89c.37-.21.79-.31,1.26-.31s.88.1,1.24.31.63.48.82.83c.19.35.29.73.29,1.16,0,.22,0,.38-.02.5Zm-.85-1.46c-.15-.26-.36-.46-.63-.59-.27-.13-.56-.2-.87-.2-.47,0-.87.15-1.21.45-.33.3-.52.73-.55,1.28h3.48c0-.37-.07-.68-.22-.94Z"/>
    <path class="cls-1" d="m68.88,33.43l1.67-4.33h.67l-1.99,4.95h-.72l-1.99-4.95h.68l1.67,4.33Z"/>
    <path class="cls-1" d="m72.09,30.22c.2-.38.48-.68.84-.89.36-.21.77-.31,1.22-.31s.88.11,1.22.33c.34.22.59.5.74.83v-1.09h.63v4.95h-.63v-1.1c-.16.34-.41.62-.75.84-.34.22-.75.33-1.22.33-.45,0-.85-.11-1.21-.32-.36-.21-.64-.51-.84-.9-.2-.39-.3-.83-.3-1.34s.1-.95.3-1.34Zm3.78.29c-.16-.3-.38-.54-.67-.7s-.59-.24-.93-.24-.67.08-.94.24c-.28.16-.5.39-.66.68-.16.3-.24.65-.24,1.06s.08.76.24,1.07c.16.31.38.54.66.7.28.16.59.24.94.24s.65-.08.93-.24.5-.4.67-.7c.16-.3.25-.65.25-1.05s-.08-.75-.25-1.05Z"/>
    <path class="cls-1" d="m79.02,29.63v3.07c0,.3.06.51.17.62.11.12.32.17.61.17h.58v.54h-.68c-.45,0-.78-.1-1-.31-.22-.21-.33-.55-.33-1.03v-3.07h-.69v-.53h.69v-1.24h.64v1.24h1.36v.53h-1.36Z"/>
    <path class="cls-1" d="m85.88,31.82h-4.11c.02.38.11.7.27.96.16.27.38.47.64.6.27.14.56.2.87.2.41,0,.76-.1,1.04-.3.28-.2.47-.47.56-.81h.67c-.12.48-.38.88-.78,1.18s-.89.46-1.49.46c-.46,0-.88-.1-1.25-.31-.37-.21-.66-.5-.87-.89-.21-.38-.31-.83-.31-1.35s.1-.96.31-1.35.49-.68.86-.89c.37-.21.79-.31,1.26-.31s.88.1,1.24.31.63.48.82.83c.19.35.29.73.29,1.16,0,.22,0,.38-.02.5Zm-.85-1.46c-.15-.26-.36-.46-.63-.59-.27-.13-.56-.2-.87-.2-.47,0-.87.15-1.21.45-.33.3-.52.73-.55,1.28h3.48c0-.37-.07-.68-.22-.94Z"/>
    <path class="cls-1" d="m90.33,34.95h-.63v-8.07h.63v8.07Z"/>
    <path class="cls-1" d="m95.03,27.71v6.34h-.63v-6.34h.63Z"/>
    <path class="cls-1" d="m100.24,29.55c.37.37.56.9.56,1.59v2.9h-.62v-2.83c0-.54-.13-.95-.4-1.23-.27-.28-.64-.43-1.1-.43s-.86.15-1.14.45c-.28.3-.43.75-.43,1.33v2.7h-.63v-4.95h.63v.84c.16-.3.38-.53.68-.69.3-.16.63-.24,1.01-.24.59,0,1.08.18,1.45.55Z"/>
    <path class="cls-1" d="m105.98,29.55c.37.37.56.9.56,1.59v2.9h-.62v-2.83c0-.54-.13-.95-.4-1.23-.27-.28-.64-.43-1.1-.43s-.86.15-1.14.45c-.28.3-.43.75-.43,1.33v2.7h-.63v-4.95h.63v.84c.16-.3.38-.53.68-.69.3-.16.63-.24,1.01-.24.59,0,1.08.18,1.45.55Z"/>
    <path class="cls-1" d="m108.86,33.81c-.37-.21-.66-.5-.88-.89s-.32-.83-.32-1.35.11-.96.33-1.35c.22-.38.51-.68.89-.89.38-.21.79-.31,1.26-.31s.89.1,1.26.31c.38.21.67.5.89.89s.32.83.32,1.35-.11.96-.33,1.34c-.22.39-.52.68-.9.89-.38.21-.8.31-1.27.31s-.88-.1-1.26-.31Zm2.16-.46c.28-.15.5-.37.68-.67.17-.3.26-.67.26-1.1s-.08-.8-.25-1.1c-.17-.3-.39-.52-.67-.67-.28-.15-.58-.22-.91-.22s-.63.07-.91.22-.5.37-.67.67c-.17.3-.25.67-.25,1.1s.08.8.25,1.1c.17.3.39.52.66.67.28.15.58.22.9.22s.63-.07.91-.22Z"/>
    <path class="cls-1" d="m115.52,33.43l1.67-4.33h.67l-1.99,4.95h-.72l-1.99-4.95h.68l1.67,4.33Z"/>
    <path class="cls-1" d="m118.74,30.22c.2-.38.48-.68.84-.89.36-.21.77-.31,1.22-.31s.88.11,1.22.33c.34.22.59.5.74.83v-1.09h.63v4.95h-.63v-1.1c-.16.34-.41.62-.75.84-.34.22-.75.33-1.22.33-.45,0-.85-.11-1.21-.32-.36-.21-.64-.51-.84-.9-.2-.39-.3-.83-.3-1.34s.1-.95.3-1.34Zm3.78.29c-.16-.3-.38-.54-.67-.7s-.59-.24-.93-.24-.67.08-.94.24c-.28.16-.5.39-.66.68-.16.3-.24.65-.24,1.06s.08.76.24,1.07c.16.31.38.54.66.7.28.16.59.24.94.24s.65-.08.93-.24.5-.4.67-.7c.16-.3.25-.65.25-1.05s-.08-.75-.25-1.05Z"/>
    <path class="cls-1" d="m125.67,29.63v3.07c0,.3.06.51.17.62.11.12.32.17.61.17h.58v.54h-.68c-.45,0-.78-.1-1-.31-.22-.21-.33-.55-.33-1.03v-3.07h-.69v-.53h.69v-1.24h.64v1.24h1.36v.53h-1.36Z"/>
    <path class="cls-1" d="m132.53,31.82h-4.11c.02.38.11.7.27.96.16.27.38.47.64.6.27.14.56.2.87.2.41,0,.76-.1,1.04-.3.28-.2.47-.47.56-.81h.67c-.12.48-.38.88-.78,1.18s-.89.46-1.49.46c-.46,0-.88-.1-1.25-.31-.37-.21-.66-.5-.87-.89-.21-.38-.31-.83-.31-1.35s.1-.96.31-1.35.49-.68.86-.89c.37-.21.79-.31,1.26-.31s.88.1,1.24.31.63.48.82.83c.19.35.29.73.29,1.16,0,.22,0,.38-.02.5Zm-.85-1.46c-.15-.26-.36-.46-.63-.59-.27-.13-.56-.2-.87-.2-.47,0-.87.15-1.21.45-.33.3-.52.73-.55,1.28h3.48c0-.37-.07-.68-.22-.94Z"/>
    <path class="cls-1" d="m136.97,34.95h-.63v-8.07h.63v8.07Z"/>
    <path class="cls-1" d="m141.16,29.2c.27-.49.64-.88,1.12-1.15s1-.41,1.58-.41c.71,0,1.31.17,1.82.5.5.33.87.81,1.1,1.42h-.74c-.18-.43-.46-.76-.83-1.01-.37-.24-.82-.36-1.35-.36-.47,0-.88.11-1.26.33-.37.22-.66.53-.87.94-.21.41-.32.88-.32,1.42s.11,1.01.32,1.41c.21.4.5.72.87.93.37.22.79.33,1.26.33.53,0,.97-.12,1.35-.36.37-.24.65-.57.83-.99h.74c-.23.6-.6,1.07-1.11,1.4-.51.33-1.11.5-1.81.5-.58,0-1.11-.14-1.58-.41s-.84-.66-1.12-1.15c-.27-.49-.41-1.05-.41-1.67s.14-1.18.41-1.67Z"/>
    <path class="cls-1" d="m148.94,33.81c-.37-.21-.66-.5-.88-.89s-.32-.83-.32-1.35.11-.96.33-1.35c.22-.38.51-.68.89-.89.38-.21.79-.31,1.26-.31s.89.1,1.26.31c.38.21.67.5.89.89s.32.83.32,1.35-.11.96-.33,1.34c-.22.39-.52.68-.9.89-.38.21-.8.31-1.27.31s-.88-.1-1.26-.31Zm2.16-.46c.28-.15.5-.37.68-.67.17-.3.26-.67.26-1.1s-.08-.8-.25-1.1c-.17-.3-.39-.52-.67-.67-.28-.15-.58-.22-.91-.22s-.63.07-.91.22-.5.37-.67.67c-.17.3-.25.67-.25,1.1s.08.8.25,1.1c.17.3.39.52.66.67.28.15.58.22.9.22s.63-.07.91-.22Z"/>
    <path class="cls-1" d="m157.62,29.55c.37.37.56.9.56,1.59v2.9h-.62v-2.83c0-.54-.13-.95-.4-1.23-.27-.28-.64-.43-1.1-.43s-.86.15-1.14.45c-.28.3-.43.75-.43,1.33v2.7h-.63v-4.95h.63v.84c.16-.3.38-.53.68-.69.3-.16.63-.24,1.01-.24.59,0,1.08.18,1.45.55Z"/>
    <path class="cls-1" d="m163.36,29.55c.37.37.56.9.56,1.59v2.9h-.62v-2.83c0-.54-.13-.95-.4-1.23-.27-.28-.64-.43-1.1-.43s-.86.15-1.14.45c-.28.3-.43.75-.43,1.33v2.7h-.63v-4.95h.63v.84c.16-.3.38-.53.68-.69.3-.16.63-.24,1.01-.24.59,0,1.08.18,1.45.55Z"/>
    <path class="cls-1" d="m169.78,31.82h-4.11c.02.38.11.7.27.96.16.27.38.47.64.6.27.14.56.2.87.2.41,0,.76-.1,1.04-.3.28-.2.47-.47.56-.81h.67c-.12.48-.38.88-.78,1.18s-.89.46-1.49.46c-.46,0-.88-.1-1.25-.31-.37-.21-.66-.5-.87-.89-.21-.38-.31-.83-.31-1.35s.1-.96.31-1.35.49-.68.86-.89c.37-.21.79-.31,1.26-.31s.88.1,1.24.31.63.48.82.83c.19.35.29.73.29,1.16,0,.22,0,.38-.02.5Zm-.85-1.46c-.15-.26-.36-.46-.63-.59-.27-.13-.56-.2-.87-.2-.47,0-.87.15-1.21.45-.33.3-.52.73-.55,1.28h3.48c0-.37-.07-.68-.22-.94Z"/>
    <path class="cls-1" d="m170.98,30.22c.21-.38.49-.68.85-.89.36-.21.78-.31,1.24-.31.61,0,1.11.15,1.51.45.4.3.65.71.77,1.23h-.68c-.08-.36-.27-.64-.55-.84-.28-.2-.63-.3-1.05-.3-.33,0-.63.08-.9.23-.27.15-.48.38-.63.68-.15.3-.23.67-.23,1.1s.08.8.23,1.11.36.53.63.68c.27.15.57.23.9.23.42,0,.77-.1,1.05-.3.28-.2.46-.48.55-.85h.68c-.12.51-.37.92-.77,1.22-.4.31-.9.46-1.5.46-.46,0-.88-.1-1.24-.31-.36-.21-.65-.5-.85-.89s-.31-.83-.31-1.35.1-.96.31-1.35Z"/>
    <path class="cls-1" d="m177.34,29.63v3.07c0,.3.06.51.17.62.11.12.32.17.61.17h.58v.54h-.68c-.45,0-.78-.1-1-.31-.22-.21-.33-.55-.33-1.03v-3.07h-.69v-.53h.69v-1.24h.64v1.24h1.36v.53h-1.36Z"/>
  </g>
  <g>
    <path class="cls-2" d="m75.31,14.94c0,.92-.18,1.73-.54,2.43-.36.7-.85,1.29-1.49,1.76-.63.47-1.38.83-2.23,1.08-.85.25-1.78.37-2.77.37h-12.74v-4.15h13.5c.51,0,.95-.13,1.32-.38s.55-.62.55-1.1-.19-.85-.56-1.13c-.38-.27-.81-.41-1.31-.41h-7.33c-.96,0-1.85-.12-2.68-.37-.83-.25-1.55-.62-2.17-1.1s-1.1-1.08-1.45-1.78c-.35-.7-.53-1.51-.53-2.43s.18-1.71.53-2.41c.35-.7.83-1.29,1.45-1.75s1.34-.83,2.17-1.08c.83-.25,1.72-.37,2.68-.37h12.68v4.15h-13.35c-.56,0-1.03.14-1.4.42-.37.28-.55.65-.55,1.09s.18.8.54,1.08c.36.27.83.41,1.41.41h7.23c1.03,0,1.96.14,2.82.42.85.28,1.59.68,2.22,1.19.62.51,1.11,1.11,1.46,1.81s.53,1.45.53,2.27Z"/>
    <path class="cls-2" d="m94.05,15.02c0,.75-.15,1.46-.44,2.14-.29.68-.68,1.26-1.18,1.77-.5.5-1.09.91-1.77,1.2s-1.41.45-2.18.45h-3.47c-.34,0-.69-.06-1.04-.17-.35-.11-.69-.26-1.01-.45s-.61-.41-.86-.67c-.25-.26-.43-.54-.55-.85v6.77h-4.15V6.23h4.15l.03,2.16c.12-.27.3-.54.55-.8.25-.26.53-.5.85-.7s.65-.36,1.01-.48c.36-.12.71-.18,1.05-.18h3.46c.77,0,1.49.15,2.17.45.67.3,1.26.7,1.77,1.22.5.51.9,1.11,1.19,1.78.29.68.44,1.38.44,2.11v3.23Zm-4.15-3.25c0-.38-.14-.7-.41-.98-.27-.27-.61-.41-1-.41h-5.55c-.39,0-.72.14-.99.41-.27.27-.4.6-.4.98v3.24c0,.39.13.73.4,1,.27.27.6.41.99.41h5.55c.39,0,.73-.14,1-.41.27-.27.41-.61.41-1v-3.24Z"/>
    <path class="cls-2" d="m100.78,3.31h-4.15V.69h4.15v2.61Zm0,17.27h-4.15V6.23h4.15v14.35Z"/>
    <path class="cls-2" d="m111.96,10.35c-.85-.5-1.59-.74-2.2-.74-.82,0-1.43.36-1.82,1.08-.39.72-.59,1.73-.59,3.02v6.89h-4.15V6.23h4.1v2.13c.33-.82.76-1.41,1.31-1.78.55-.37,1.23-.55,2.05-.55.24,0,.5.01.79.04.29.03.62.08.97.17l-.46,4.13Z"/>
    <path class="cls-2" d="m123.72,6.23c.85,0,1.65.14,2.4.42.74.28,1.39.69,1.93,1.22.55.53.97,1.17,1.28,1.92.31.75.46,1.59.46,2.51v8.28c-.89,0-1.64-.44-2.25-1.33-.19.19-.44.36-.77.53s-.69.3-1.09.42c-.4.12-.83.21-1.28.28-.45.07-.89.1-1.32.1h-5.41c-.62,0-1.18-.1-1.7-.31-.52-.21-.97-.49-1.33-.86-.37-.37-.66-.8-.87-1.29-.21-.5-.32-1.03-.32-1.61,0-.63.11-1.21.32-1.74.21-.53.52-.98.91-1.36.39-.38.86-.67,1.41-.88.55-.21,1.15-.32,1.82-.32h5.87c.44,0,.88.11,1.29.33.42.22.69.52.81.9l-.15-1.38c-.14-1.16-.72-1.74-1.74-1.74h-9.25l.46-4.07h8.53Zm1.95,9.22c0-.46-.48-.69-1.43-.69h-5.3c-.39,0-.7.08-.93.23-.23.15-.35.39-.35.72s.08.56.23.72c.15.15.43.23.82.23h4.77c.58,0,1.09-.12,1.54-.36s.67-.52.67-.85Z"/>
    <path class="cls-2" d="m136.45,20.58h-4.15V1.38l4.15-1.38v20.58Z"/>
    <path class="cls-2" d="m164.8,6.23h-6.82v14.38h-4.15V6.23h-6.71V2.08h17.68v4.15Z"/>
    <path class="cls-2" d="m181.22,14.58h-12.5v.44c0,.39.14.74.41,1.04.27.3.6.45.97.45h10.71l-.51,4.07h-10.2c-.77,0-1.49-.15-2.17-.44s-1.26-.69-1.75-1.19c-.5-.5-.89-1.09-1.18-1.77-.29-.67-.44-1.4-.44-2.17v-3.23c0-.77.15-1.49.45-2.18.3-.68.7-1.27,1.2-1.77.5-.5,1.09-.89,1.76-1.18.67-.29,1.38-.44,2.13-.44h5.56c.75,0,1.46.15,2.14.45.67.3,1.26.7,1.77,1.2s.91,1.09,1.2,1.77.45,1.39.45,2.14v2.79Zm-4.18-2.33v-.69c0-.38-.14-.7-.41-.99-.27-.28-.6-.42-.97-.42h-5.56c-.38,0-.7.14-.97.42-.27.28-.41.61-.41.99v.69h8.33Z"/>
    <path class="cls-2" d="m199,18.09c-.51.77-1.19,1.38-2.02,1.82s-1.72.67-2.64.67h-5.69c-.77,0-1.49-.15-2.16-.44s-1.26-.69-1.76-1.19-.9-1.09-1.18-1.77c-.29-.67-.43-1.4-.43-2.17v-3.23c0-.77.15-1.49.45-2.18.3-.68.7-1.27,1.2-1.77.5-.5,1.09-.89,1.76-1.18.67-.29,1.38-.44,2.13-.44h5.56c1.91,0,3.42.78,4.54,2.34l-3.41,2.4c-.29-.39-.67-.59-1.13-.59h-5.56c-.38,0-.7.14-.97.41-.27.27-.41.6-.41.98v3.24c0,.39.14.73.41,1,.27.27.6.41.97.41h5.56c.73,0,1.31-.38,1.72-1.15l3.08,2.82Z"/>
    <path class="cls-2" d="m216.84,20.58h-4.15v-8.81c0-.38-.14-.7-.41-.98-.27-.27-.6-.41-.98-.41h-4.6c-1.27,0-1.9.63-1.9,1.9v8.3h-4.15V1.38l4.15-1.38v8.01c.15-.24.37-.47.64-.69.27-.22.57-.41.9-.57.32-.16.66-.29,1-.38.34-.09.66-.14.95-.14h3c.75,0,1.46.15,2.14.45.67.3,1.26.7,1.77,1.2.5.5.91,1.09,1.2,1.77s.45,1.39.45,2.14v8.79Z"/>
  </g>
  <g>
    <path class="cls-2" d="m26.84,19.59c-.54-.85-.95-1.47-1.33-2.11-1-1.71-2.02-3.41-2.95-5.16-.74-1.41-1.73-2.1-3.4-2.04-2.76.11-5.54.09-8.31,0-1.67-.05-2.68.59-3.47,2.06-1.73,3.2-3.61,6.33-5.45,9.47-.54.91-.62,1.76-.06,2.71,2.02,3.44,4,6.9,6,10.36.24.42.45.85.7,1.34-.96.39-1.38-.13-1.73-.71-1.02-1.7-2.01-3.41-3.01-5.13-.96-1.66-1.91-3.34-2.87-5-1.31-2.28-1.28-4.54.04-6.8,1.85-3.17,3.69-6.35,5.54-9.52,1.36-2.33,3.49-3.24,6.09-3.22,2.42.02,4.84.13,7.26.06,2.76-.07,4.78.99,6.08,3.44.71,1.33,1.53,2.62,2.23,3.96.74,1.4.64,2.81-.14,4.17-.36.62-.72,1.24-1.23,2.11Z"/>
    <path class="cls-2" d="m39.11,21.09c.67.71.53,1.3.19,1.89-1.22,2.12-2.44,4.25-3.66,6.37-.76,1.31-1.52,2.62-2.28,3.94-1.14,1.98-2.87,3.09-5.13,3.13-4.11.07-8.23.09-12.34-.02-2.15-.06-3.79-1.23-4.89-3.09-1.43-2.44-2.87-4.87-4.23-7.35-1.05-1.91-1.1-3.92-.06-5.87.81-1.52,1.67-3.01,2.58-4.47.79-1.26,1.96-1.98,3.49-1.98.82,0,1.65,0,2.47,0l.11.29c-.66,1.18-1.31,2.36-1.99,3.54-.81,1.42-1.63,2.83-2.46,4.23-.5.83-.5,1.67-.03,2.49,1.64,2.89,3.29,5.77,4.97,8.64.5.86,1.3,1.29,2.34,1.29,3.88-.01,7.76,0,11.64,0,1.09,0,1.87-.43,2.42-1.41,1.97-3.44,3.98-6.86,5.98-10.28.24-.42.53-.81.86-1.33Z"/>
    <path class="cls-2" d="m10.62,2.28c.32-.96.96-1.07,1.66-1.07,2.54,0,5.07,0,7.61,0,1.4,0,2.8,0,4.2,0,2.44-.01,4.27,1.07,5.49,3.14,1.82,3.09,3.55,6.23,5.39,9.3,1.48,2.47,1.51,4.86.02,7.33-1.38,2.3-2.66,4.66-4.03,6.96-1.1,1.84-2.8,2.79-4.91,2.89-1.72.08-3.44.03-5.16,0-1.51-.02-2.69-.7-3.49-1.98-.44-.7-.84-1.43-1.37-2.32.57-.06.93-.14,1.28-.14,2.45,0,4.9-.02,7.35,0,1.36.01,2.38-.4,3.08-1.69,1.48-2.71,3.08-5.36,4.62-8.03.52-.9.54-1.81,0-2.74-1.99-3.43-3.97-6.86-5.95-10.3-.58-1-1.5-1.31-2.59-1.31-3.94,0-7.87.01-11.81,0-.43,0-.86-.04-1.4-.07Z"/>
  </g>
  <rect class="cls-1" x="46.16" y="3.38" width="1.5" height="30.9"/>
</svg>